<?xml version="1.0" standalone="no"?>
<!DOCTYPE svg PUBLIC "-//W3C//DTD SVG 20010904//EN"
 "http://www.w3.org/TR/2001/REC-SVG-20010904/DTD/svg10.dtd">
<svg version="1.0" xmlns="http://www.w3.org/2000/svg"
 width="260.000000pt" height="260.000000pt" viewBox="0 0 260.000000 260.000000"
 preserveAspectRatio="xMidYMid meet">
<metadata>
Created by potrace 1.14, written by Peter Selinger 2001-2017
</metadata>
<g transform="translate(0.000000,260.000000) scale(0.100000,-0.100000)"
fill="#000000" stroke="none">
<path d="M1128 2593 c-27 -2 -48 -8 -48 -13 0 -5 -10 -7 -21 -5 -12 3 -27 1
-33 -3 -6 -4 -18 -7 -26 -8 -8 0 -22 -3 -30 -7 -8 -3 -27 -8 -42 -11 -15 -3
-40 -11 -55 -18 -15 -6 -30 -12 -33 -12 -29 -7 -100 -41 -100 -47 0 -5 -3 -8
-7 -7 -23 4 -192 -99 -267 -163 -49 -42 -209 -209 -200 -209 3 0 -10 -19 -29
-43 -34 -40 -86 -133 -85 -151 0 -5 -4 -12 -9 -15 -11 -8 -56 -102 -56 -118 0
-7 -3 -13 -7 -13 -4 0 -13 -26 -20 -57 -7 -32 -16 -62 -19 -68 -3 -5 -6 -17
-6 -25 0 -8 -4 -21 -8 -27 -5 -7 -5 -18 -2 -23 4 -6 2 -17 -4 -23 -5 -7 -9
-32 -8 -55 2 -23 -1 -42 -6 -42 -5 0 -7 -64 -4 -142 5 -133 11 -213 17 -213 1
0 4 -11 6 -25 5 -36 10 -63 16 -80 14 -38 31 -106 30 -112 -1 -5 3 -8 9 -8 6
0 9 -7 5 -15 -3 -8 -1 -15 5 -15 6 0 9 -7 5 -15 -3 -8 -1 -15 4 -15 5 0 12
-11 16 -25 3 -14 10 -25 15 -25 5 0 8 -3 7 -7 -5 -15 81 -161 132 -224 66 -85
153 -179 164 -179 5 0 22 -14 38 -30 15 -17 30 -30 33 -30 2 0 28 -18 57 -40
29 -22 58 -40 65 -40 6 0 13 -3 15 -7 4 -11 179 -96 195 -96 7 0 13 -5 13 -10
0 -5 6 -7 14 -4 7 3 17 2 22 -3 8 -8 30 -14 109 -33 6 -1 15 -5 20 -8 6 -3 22
-5 38 -4 15 0 27 -3 27 -7 0 -9 10 -10 220 -12 145 -1 220 4 220 15 0 3 11 5
25 4 14 -2 27 0 30 5 3 5 16 7 30 5 14 -1 25 1 25 5 0 4 18 10 40 14 22 3 40
10 40 14 0 4 9 9 20 10 44 4 50 6 50 15 0 5 7 7 15 3 8 -3 15 -1 15 4 0 5 10
12 23 16 12 3 30 13 40 22 9 8 17 12 17 9 0 -4 23 7 50 23 28 17 54 30 58 30
4 0 23 14 42 32 19 17 36 30 38 29 2 -2 19 11 38 28 18 17 36 31 39 31 6 0
107 103 144 146 13 16 42 56 65 89 22 33 46 63 51 67 7 5 7 8 0 8 -7 0 -7 3 0
8 13 9 51 84 47 94 -1 4 2 8 7 8 7 0 25 35 36 73 1 4 4 10 5 15 1 4 2 10 1 15
0 4 3 7 9 7 6 0 9 3 8 8 -1 6 16 74 30 112 7 23 13 52 15 82 0 16 4 28 8 28 7
0 8 11 15 185 4 96 -2 184 -21 290 -3 17 -7 37 -8 45 -2 9 -5 20 -8 25 -3 6
-12 36 -19 68 -7 31 -17 57 -22 57 -4 0 -8 8 -8 17 0 20 -99 217 -111 221 -5
2 -9 9 -9 14 0 10 -58 92 -98 138 -19 23 -129 133 -152 152 -48 41 -128 98
-138 98 -7 0 -12 4 -12 8 0 5 -18 17 -40 27 -22 10 -40 22 -40 27 0 5 -4 7 -9
3 -5 -3 -12 -1 -16 5 -4 6 -11 8 -16 5 -5 -4 -9 -2 -9 2 0 8 -48 30 -60 29 -3
-1 -17 6 -30 15 -14 9 -50 22 -80 29 -30 7 -59 15 -65 18 -5 3 -16 7 -25 9 -8
1 -26 4 -40 7 -78 15 -108 18 -240 21 -80 1 -166 1 -192 -2z"/>
</g>
</svg>
